<?xml version="1.0" encoding="UTF-8" standalone="no"?>
<!-- Uploaded to: SVG Repo, www.svgrepo.com, Generator: SVG Repo Mixer Tools -->

<svg
   width="500"
   height="500"
   viewBox="0 0 640 640"
   class="icon"
   version="1.1"
   id="svg2"
   xmlns="http://www.w3.org/2000/svg"
   xmlns:svg="http://www.w3.org/2000/svg">
  <defs
     id="defs2" />
  <path
     id="path1"
     style="fill:#14b8a6;fill-opacity:1;stroke:#000000;stroke-width:5.12;stroke-dasharray:none;stroke-dashoffset:0;stroke-opacity:1"
     d="M 320,0 A 224.00004,224.00004 0 0 0 96,224 c 0,123.71191 224,416 224,416 0,0 224,-292.28809 224,-416 H 480 465.2775 384 c -17.728,0 -32,14.272 -32,32 0,17.728 14.272,32 32,32 h 66.5925 a 144,144 0 0 1 -129.3125,80.64 144,144 0 0 1 -144,-144 144,144 0 0 1 144,-144 144,144 0 0 1 128.6775,79.36 h 84.705 A 224.00004,224.00004 0 0 0 320,0 Z" />
</svg>
