<?xml version="1.0" encoding="UTF-8" standalone="no"?>
<svg
   width="500"
   height="700"
   viewBox="0 0 640 896"
   class="icon"
   version="1.1"
   id="svg6"
   sodipodi:docname="gspot.svg"
   inkscape:version="1.4.2 (f4327f4, 2025-05-13)"
   xml:space="preserve"
   xmlns:inkscape="http://www.inkscape.org/namespaces/inkscape"
   xmlns:sodipodi="http://sodipodi.sourceforge.net/DTD/sodipodi-0.dtd"
   xmlns:xlink="http://www.w3.org/1999/xlink"
   xmlns="http://www.w3.org/2000/svg"
   xmlns:svg="http://www.w3.org/2000/svg"><sodipodi:namedview
     id="namedview1"
     pagecolor="#ffffff"
     bordercolor="#000000"
     borderopacity="0.25"
     inkscape:showpageshadow="2"
     inkscape:pageopacity="0.0"
     inkscape:pagecheckerboard="0"
     inkscape:deskcolor="#d1d1d1"
     inkscape:zoom="2.0185714"
     inkscape:cx="235.81034"
     inkscape:cy="337.11961"
     inkscape:window-width="2880"
     inkscape:window-height="1694"
     inkscape:window-x="-11"
     inkscape:window-y="-11"
     inkscape:window-maximized="1"
     inkscape:current-layer="svg6" /><defs
     id="defs6"><linearGradient
       id="linearGradient1"><stop
         style="stop-color:#5ae1ff;stop-opacity:1;"
         offset="0"
         id="stop1" /><stop
         style="stop-color:#b4b4b4;stop-opacity:1;"
         offset="1"
         id="stop2" /></linearGradient><linearGradient
       xlink:href="#linearGradient1"
       id="cameraGradient"
       x1="512.00006"
       y1="191.99992"
       x2="512.00006"
       y2="831.99982"
       gradientUnits="userSpaceOnUse"
       spreadMethod="pad"
       gradientTransform="translate(-192,-64)" /></defs><path
     d="M 640,320 C 640,496.72533 320,896 320,896 320,896 0,496.72533 0,320 0,143.27467 143.27467,0 320,0 496.72533,0 640,143.27467 640,320 Z"
     fill="url(#cameraGradient)"
     id="path1"
     style="fill-rule:nonzero"
     inkscape:label="point" /><path
     fill="#394240"
     d="m 320,608 c -44.3264,0 -64,74.2016 -64,102.4 0,30.8992 22.0256,56.7488 51.2,62.7008 V 800 c 0,7.0752 5.7248,12.8 12.8,12.8 7.0752,0 12.8,-5.7248 12.8,-12.8 V 773.1008 C 361.9744,767.1488 384,741.2992 384,710.4 384,681.2512 364.9632,608 320,608 Z m 0,140.8 c -21.1744,0 -38.4,-17.2256 -38.4,-38.4 0,-28.1984 18.976,-76.8 38.4,-76.8 21.0112,0 38.4,50.8512 38.4,76.8 0,21.1744 -17.2256,38.4 -38.4,38.4 z"
     id="path1-4"
     inkscape:label="tree-outline"
     style="stroke-width:7.68;stroke-dasharray:none;fill:#ffffff;fill-opacity:1" /><path
     d="M 469.33333,469.33333 H 170.66667 C 145.94133,469.33333 128,451.712 128,426.66667 V 216 c 0,-25.04533 20.05333,-45.33333 44.8,-45.33333 h 294.4 c 24.72533,0 44.8,20.288 44.8,45.33333 v 210.66667 c 0,25.04533 -17.94133,42.66666 -42.66667,42.66666"
     fill="#333333"
     id="path2"
     style="fill-opacity:1"
     inkscape:label="camera" /><path
     d="m 170.66667,213.33333 h 42.66666 V 256 h -42.66666 z"
     fill="#5a5a5a"
     id="path3"
     inkscape:label="camera-light" /><path
     d="M 234.66667,320 A 106.688,106.688 0 0 1 448,320 106.66667,106.66667 0 0 1 234.66667,320 m 170.66666,-149.33333 -20.928,-32.66134 A 21.461333,21.461333 0 0 0 366.42133,128 h -103.808 c -7.21066,0 -13.952,3.75467 -17.96266,10.00533 l -20.94934,32.66134 z"
     fill="#5a5a5a"
     id="path4"
     inkscape:label="camera-feature" /><path
     d="m 277.33333,320 a 64.021333,64.021333 0 0 1 128,0 64.021333,64.021333 0 0 1 -128,0"
     fill="#00c8ff"
     id="path5"
     inkscape:label="camera-lens" /><path
     d="m 356.416,326.25067 a 21.226667,21.226667 0 0 1 -15.104,-6.272 21.315027,21.315027 0 1 1 -30.144,-30.144 c 8.064,-8.064 18.77333,-12.50134 30.16533,-12.50134 h 0.0427 c 11.392,0 22.10133,4.45867 30.144,12.52267 a 21.312,21.312 0 0 1 -15.104,36.39467 z"
     fill="#7de1ff"
     id="path6"
     inkscape:label="camera-lens-highlight" /><path
     d="m 520.92213,89.161708 c 0,18.750882 -15.38164,33.951562 -34.35558,33.951562 h -31.77876 m 20.32729,-65.970741 c 3.58148,-1.251141 7.43591,-1.931904 11.45147,-1.931904 3.93619,0 7.71727,0.654129 11.23922,1.858375 m -66.36845,15.595198 c -1.61524,-0.313838 -3.28465,-0.477971 -4.99284,-0.477971 -14.23048,0 -25.7666,11.400357 -25.7666,25.463523 0,14.06316 11.53612,25.46352 25.7666,25.46352 h 4.29447 m 0.69837,-50.449072 c -1.37739,-3.674063 -2.12988,-7.647534 -2.12988,-11.794999 0,-18.750828 15.38152,-33.951324 34.35558,-33.951324 17.6741,0 32.23087,13.189051 34.14275,30.151125 m -66.36845,15.595198 c 3.39348,0.658337 6.54802,1.975011 9.322,3.809939 M 497.80577,57.069 c 4.10635,1.404152 7.85917,3.556223 11.09194,6.291299"
     stroke="#1c274c"
     stroke-width="1.5"
     stroke-linecap="round"
     id="path1-9"
     style="fill:none;stroke:#ffffff;stroke-width:7.75552;stroke-dasharray:none;stroke-opacity:1"
     inkscape:label="cloud" /></svg>
