<?xml version="1.0" encoding="UTF-8" standalone="no"?>
<svg
   width="300"
   height="265.97916"
   viewBox="0 0 384 340.45332"
   class="icon"
   version="1.1"
   id="svg6"
   sodipodi:docname="gspot.svg"
   inkscape:version="1.4.2 (f4327f4, 2025-05-13)"
   xml:space="preserve"
   xmlns:inkscape="http://www.inkscape.org/namespaces/inkscape"
   xmlns:sodipodi="http://sodipodi.sourceforge.net/DTD/sodipodi-0.dtd"
   xmlns:xlink="http://www.w3.org/1999/xlink"
   xmlns="http://www.w3.org/2000/svg"
   xmlns:svg="http://www.w3.org/2000/svg"><sodipodi:namedview
     id="namedview1"
     pagecolor="#ffffff"
     bordercolor="#000000"
     borderopacity="0.25"
     inkscape:showpageshadow="2"
     inkscape:pageopacity="0.0"
     inkscape:pagecheckerboard="0"
     inkscape:deskcolor="#d1d1d1"
     inkscape:zoom="2.8284271"
     inkscape:cx="148.13887"
     inkscape:cy="134.88062"
     inkscape:window-width="2880"
     inkscape:window-height="1694"
     inkscape:window-x="-11"
     inkscape:window-y="-11"
     inkscape:window-maximized="1"
     inkscape:current-layer="svg6" /><defs
     id="defs6"><linearGradient
       id="linearGradient1"><stop
         style="stop-color:#000000;stop-opacity:1;"
         offset="0"
         id="stop1" /><stop
         style="stop-color:#455aff;stop-opacity:1;"
         offset="1"
         id="stop2" /></linearGradient><linearGradient
       xlink:href="#linearGradient1"
       id="cameraGradient"
       x1="512.00006"
       y1="191.99992"
       x2="512.00006"
       y2="831.99982"
       gradientUnits="userSpaceOnUse"
       spreadMethod="pad"
       gradientTransform="matrix(0.20523707,0,0,0.20523707,82.978058,180.90304)" /></defs><path
     d="M 341.33333,340.45333 H 42.66667 C 17.94133,340.45333 0,322.832 0,297.78667 V 87.12 C 0,62.07467 20.05333,41.78667 44.8,41.78667 h 294.4 c 24.72533,0 44.8,20.288 44.8,45.33333 v 210.66667 c 0,25.04533 -17.94133,42.66666 -42.66667,42.66666"
     fill="#333333"
     id="path2"
     style="fill-opacity:1"
     inkscape:label="camera" /><path
     d="M 42.66667,85.33333 H 85.33333 V 128 H 42.66667 Z"
     fill="#5a5a5a"
     id="path3"
     inkscape:label="camera-light" /><path
     d="M 106.66667,192 A 106.688,106.688 0 0 1 320,192 106.66667,106.66667 0 0 1 106.66667,192 M 277.33333,42.66667 256.40533,10.00533 A 21.461333,21.461333 0 0 0 238.42133,0 h -103.808 c -7.21066,0 -13.952,3.75467 -17.96266,10.00533 L 95.70133,42.66667 Z"
     fill="#5a5a5a"
     id="path4"
     inkscape:label="camera-feature" /><path
     d="m 149.33333,192 a 64.021333,64.021333 0 0 1 128,0 64.021333,64.021333 0 0 1 -128,0"
     fill="#00c8ff"
     id="path5"
     inkscape:label="camera-lens" /></svg>
